General
Complete name    			 Taken 2 2012 WebRip 720p REPACK [6ch Eng] HkhaN.m4v
Format                                   : MPEG-4
Format profile                           : Base Media / Version 2
Codec ID                                 : mp42
File size                                : 1.46 GiB
Duration                                 : 1h 32mn
Overall bit rate mode                    : Variable
Overall bit rate                         : 2 261 Kbps
Encoded date                             : UTC 2012-12-21 20:44:29
Tagged date                              : UTC 2012-12-22 01:44:16
Writing application                      : HandBrake 0.9.5 2011010300

Video
ID                                       : 1
Format                                   : AVC
Format/Info                              : Advanced Video Codec
Format profile                           : High@L4.0
Format settings, CABAC                   : Yes
Format settings, ReFrames                : 8 frames
Codec ID                                 : avc1
Codec ID/Info                            : Advanced Video Coding
Duration                                 : 1h 32mn
Bit rate mode                            : Variable
Bit rate                                 : 2 035 Kbps
Width                                    : 1 280 pixels
Height                                   : 720 pixels
Display aspect ratio                     : 2.40:1
Original display aspect ratio            : 2.40:1
Frame rate mode                          : Variable
Frame rate                               : 23.976 fps
Minimum frame rate                       : 23.810 fps
Maximum frame rate                       : 24.390 fps
Color space                              : YUV
Chroma subsampling                       : 4:2:0
Bit depth                                : 8 bits
Scan type                                : Progressive
Bits/(Pixel*Frame)                       : 0.092
Stream size                              : 1.32 GiB (90%)
Writing library                          : x264 core 112
Encoding settings                        : cabac=1 / ref=8 / deblock=1:0:0 / analyse=0x3:0x113 / me=umh / subme=9 / psy=1 / psy_rd=1.00:0.00 / mixed_ref=0 / me_range=16 / chroma_me=1 / trellis=1 / 8x8dct=1 / cqm=0 / deadzone=21,11 / fast_pskip=1 / chroma_qp_offset=-2 / threads=3 / sliced_threads=0 / nr=0 / decimate=1 / interlaced=0 / constrained_intra=0 / bframes=3 / b_pyramid=2 / b_adapt=1 / b_bias=0 / direct=3 / weightb=0 / open_gop=0 / weightp=2 / keyint=240 / keyint_min=23 / scenecut=40 / intra_refresh=0 / rc_lookahead=40 / rc=2pass / mbtree=1 / bitrate=2035 / ratetol=1.0 / qcomp=0.60 / qpmin=3 / qpmax=51 / qpstep=4 / cplxblur=20.0 / qblur=0.5 / ip_ratio=1.40 / aq=1:1.00
Encoded date                             : UTC 2012-12-21 20:44:29
Tagged date                              : UTC 2012-12-22 01:44:16
Color primaries                          : BT.709
Transfer characteristics                 : BT.709
Matrix coefficients                      : BT.709

Audio
ID                                       : 2
Format                                   : AAC
Format/Info                              : Advanced Audio Codec
Format profile                           : LC
Codec ID                                 : 40
Duration                                 : 1h 32mn
Bit rate mode                            : Variable
Bit rate                                 : 223 Kbps
Maximum bit rate                         : 339 Kbps
Channel(s)                               : 6 channels
Channel positions                        : Front: L C R, Side: L R, LFE
Sampling rate                            : 48.0 KHz
Compression mode                         : Lossy
Delay relative to video                  : 83ms
Stream size                              : 147 MiB (10%)
Language                                 : English
Encoded date                             : UTC 2012-12-21 20:44:29
Tagged date                              : UTC 2012-12-22 01:44:10

Sample:

Snapshots:

Please seed after download:
Thanks.